<svg width="250" height="250" xmlns="http://www.w3.org/2000/svg" xmlns:svg="http://www.w3.org/2000/svg">
 <g>
  <title>Layer 1</title>
  <g id="svg_1">
   <g id="svg_2" fill="#95bbdf" transform="matrix(0.68333,0,0,0.68333,581.94,550.77) ">
    <rect id="svg_3" fill="#00b5ad" height="365.85" width="365.85" y="-806.013325" x="-851.629445"/>
   </g>
   <g id="svg_4" fill="#FFF" transform="matrix(0.3492,0,0,0.3492,284.57,419.79) ">
    <g id="svg_5" fill="#FFF">
     <path id="svg_6" d="m-456.972473,-824.210439c90.56,-0.01 123.15,-90.68 131.68,-165.17c10.51,-91.76 -32.88,-160.82 -131.68,-160.82c-98.78,0 -142.19,69.055 -131.68,160.82c8.54,74.484 41.114,165.18 131.68,165.17z"/>
     <path id="svg_7" d="m-211.992473,-608.290439c-0.99,-28.904 -4.377,-57.939 -9.421,-86.393c-6.111,-34.469 -13.889,-85.002 -43.983,-107.46c-17.404,-12.988 -39.941,-17.249 -59.865,-25.081c-9.697,-3.81 -18.384,-7.594 -26.537,-11.901c-27.518,30.176 -63.4,45.962 -105.19,45.964c-41.774,0 -77.652,-15.786 -105.17,-45.964c-8.153,4.308 -16.84,8.093 -26.537,11.901c-19.924,7.832 -42.461,12.092 -59.863,25.081c-30.096,22.463 -37.873,72.996 -43.983,107.46c-5.045,28.454 -8.433,57.489 -9.422,86.393c-0.766,22.387 10.288,25.525 29.017,32.284c23.453,8.458 47.666,14.737 72.041,19.884c47.077,9.941 95.603,17.582 143.92,17.924c48.318,-0.343 96.844,-7.983 143.92,-17.924c24.375,-5.145 48.59,-11.424 72.041,-19.884c18.736,-6.757 29.789,-9.895 29.023,-32.284l0.009,0z"/>
    </g>
   </g>
  </g>
 </g>
</svg>